<svg width="1908" height="332" viewBox="0 0 1908 332" fill="none" xmlns="http://www.w3.org/2000/svg">
<path d="M159.365 123.846V124.005L159.381 124.162C164.41 171.574 139.159 210.866 105.528 216.529L105.528 216.529C79.3861 220.932 58.087 211.504 41.8402 199.849C33.7121 194.018 26.895 187.661 21.4083 182.251C20.0367 180.898 18.7514 179.608 17.5462 178.397L17.3585 178.208C16.2274 177.071 15.1623 176.001 14.177 175.031C12.1431 173.029 10.2815 171.285 8.71702 170.193L3.84316 166.791L4.00106 172.732C5.27448 220.649 16.9239 255.203 39.2309 281.971L41.5356 280.05L39.2309 281.971C72.235 321.574 115.925 335.078 155.944 326.086C195.908 317.106 231.762 285.799 249.488 236.706L246.666 235.687L249.488 236.706C256.1 218.39 258.789 194.005 259.242 172.707L259.377 166.358L254.387 170.286C251.479 172.576 249.175 175.238 246.97 178.014C246.26 178.908 245.568 179.803 244.87 180.706C243.349 182.673 241.795 184.683 239.943 186.827C234.683 192.915 227.252 199.77 213.418 206.672C194.455 216.132 171.031 217.145 150.419 211.884L148.483 217.542C149.555 218.008 150.607 218.469 151.642 218.922C158.302 221.84 164.274 224.457 170.856 226.196C178.559 228.232 187.035 229.061 198.623 228.069C215.941 226.589 226.767 220.285 238.083 213.382C236.827 226.526 232.492 239.787 226.868 251.621C220.439 265.147 212.423 276.605 205.702 283.68C173.848 317.208 130.474 322.816 94.2885 307.742C59.2822 293.158 30.964 259.18 26.5946 212.135C30.1692 213.773 32.8531 215.32 35.5522 216.876C37.4501 217.971 39.3556 219.069 41.5835 220.206C48.0353 223.5 56.1802 226.474 72.512 229.26L72.5124 229.26C94.3769 232.987 115.726 231.322 132.904 219.071C158.64 200.718 178.242 156.142 170.156 109.11L164.2 109.652C164.244 113.534 164.243 117.391 164.233 121.265C163.671 120.983 163.004 120.811 162.231 120.846L159.365 120.974V123.843V123.846Z" fill="#5E72E4" stroke="#5E72E4" stroke-width="6"/>
<path d="M131.19 64.2421C132.538 61.5924 133.768 59.2812 134.826 57.4201C139.293 63.8618 144.047 73.4617 148.172 84.1978C153.285 97.5071 157.207 111.979 158.392 123.266L159.345 132.341L160.793 130.696C160.806 131.086 160.816 131.492 160.822 131.911C160.856 134.204 160.781 136.659 160.693 138.846C160.671 139.393 160.647 139.936 160.625 140.461C160.561 141.939 160.504 143.266 160.504 144.117V155.635L167.643 146.596C167.646 146.592 167.649 146.589 167.652 146.585C168.352 146.178 168.772 145.661 168.977 145.377C169.454 144.717 169.677 144.024 169.772 143.713C169.897 143.305 169.993 142.877 170.069 142.48C170.364 140.942 170.58 138.718 170.74 136.581C171.064 132.27 171.222 127.446 171.224 126.955C171.226 125.601 171.23 124.246 171.234 122.89C171.248 118.138 171.262 113.371 171.207 108.575L171.204 108.306L171.165 108.04C169.549 97.023 162.872 76.0072 155.386 56.5968C151.619 46.8311 147.597 37.3391 143.82 29.5621C140.132 21.9658 136.439 15.4872 133.25 12.2103L128.91 7.75139L126.655 13.5501L91.9858 102.693L91.9093 102.89L91.8539 103.094C86.4168 123.09 87.5195 143.598 92.7118 160.774C97.8704 177.839 107.248 192.164 118.918 199.178L130.374 206.063L124.583 194.016C123.155 191.045 121.246 187.928 119.169 184.54C110.634 170.609 99.2854 152.087 107.019 120.226C107.579 117.92 109.392 112.966 112.038 106.463C114.641 100.066 117.94 92.4356 121.338 84.931C124.737 77.4237 128.219 70.0775 131.19 64.2421ZM161.107 142.029C161.106 142.029 161.112 142.017 161.124 141.995C161.113 142.019 161.107 142.029 161.107 142.029ZM161.59 144.377C161.594 144.384 161.597 144.392 161.601 144.4C161.596 144.389 161.591 144.379 161.587 144.369L161.59 144.377Z" fill="#5E72E4" stroke="#5E72E4" stroke-width="8"/>
<path d="M436.231 235.34C436.231 248.858 434.772 261.156 431.803 272.235C428.834 283.315 424.358 292.788 418.372 300.712C412.389 308.634 404.844 314.785 395.793 319.162C386.741 323.538 376.086 325.754 363.822 325.754C358.275 325.754 352.824 325.422 347.422 324.758C342.022 324.093 336.376 322.987 330.537 321.432L333.163 288.691C333.455 285.811 334.477 283.482 336.228 281.711C337.979 279.941 340.461 279.054 343.674 279.054C345.328 279.054 347.371 279.331 349.807 279.941C352.24 280.55 355.161 280.882 358.567 280.882C363.335 280.882 367.519 280.108 371.072 278.612C374.624 277.115 377.542 274.622 379.88 271.132C382.214 267.642 383.968 263.101 385.135 257.45C386.302 251.799 386.886 244.819 386.886 236.507V80.9434H436.229V235.343L436.231 235.34ZM1281.88 264.268C1290.05 257.011 1298.2 249.315 1306.28 241.924L1311.16 237.163C1318.84 229.226 1321.38 227.181 1328.62 217.016C1338.22 203.532 1343.67 183.171 1334.26 167.398C1330.74 161.485 1324.99 155.722 1316.73 153.795C1312.37 152.783 1307.51 153.061 1303.84 154.789C1300.51 156.359 1296.87 159.105 1294.8 161.315C1291.36 165.009 1290.41 166.786 1287.75 170.059C1285.4 172.958 1283.68 176.39 1281.69 179.907C1281.23 179.426 1279.37 175.731 1278.81 174.811C1277.79 173.122 1276.77 171.598 1275.65 170.032C1271.22 163.817 1266.5 157.867 1259.58 154.746C1255.55 152.936 1251.04 152.698 1246.54 153.914C1237.76 156.286 1233.18 161.296 1228.98 167.459C1224.87 173.482 1222.52 185.275 1224.57 194.677C1227.33 207.299 1231.85 213.206 1237.98 221.313C1239.15 222.865 1240.4 224.044 1241.67 225.501C1242.32 226.257 1242.74 226.888 1243.41 227.607C1246.41 230.835 1254.09 238.607 1257.35 241.427L1279.77 262.36C1280.55 263.101 1280.94 263.808 1281.88 264.274V264.268ZM524.988 323.093H475.353V80.9404H524.988V323.093ZM756.96 80.9404L671.705 323.093H627.034L541.779 80.9404H581.487C585.768 80.9404 589.224 82.0468 591.85 84.3206C594.477 86.5913 596.474 89.5295 597.836 93.0743L639.003 222.709C640.95 228.36 642.848 234.511 644.695 241.213C646.545 247.919 648.296 254.954 649.95 262.266C651.313 254.954 652.871 247.919 654.574 241.213C656.276 234.511 658.078 228.36 660.025 222.709L700.9 93.0743C701.971 89.9715 703.917 87.146 706.69 84.6528C709.464 82.1596 712.869 80.9404 716.957 80.9404H756.957H756.96ZM868.346 230.521L848.64 164.207C847.18 159.998 845.622 155.012 843.968 149.306C842.313 143.6 840.659 137.449 839.004 130.802C837.545 137.559 835.987 143.819 834.333 149.58C832.678 155.344 831.12 160.327 829.661 164.539L810.099 230.521H868.346ZM946.739 323.093H908.49C904.207 323.093 900.751 321.929 898.124 319.658C895.498 317.388 893.501 314.504 892.141 310.96L879.585 268.745H798.71L786.157 310.96C785.086 314.062 783.188 316.833 780.414 319.326C777.641 321.819 774.187 323.093 770.099 323.093H731.559L813.892 80.9404H864.403L946.739 323.093ZM1149.22 80.9404V323.093H1123.53C1119.73 323.093 1116.57 322.374 1113.99 320.987C1111.41 319.6 1108.83 317.22 1106.3 313.785L1006.01 169.358C1006.39 173.68 1006.69 177.835 1006.83 181.879C1006.98 185.924 1007.03 189.746 1007.03 193.291V323.093H963.525V80.9404H989.51C991.652 80.9404 993.451 81.0501 994.912 81.2726C996.371 81.4951 997.686 81.8822 998.853 82.4918C1000.02 83.1014 1001.14 83.9884 1002.21 85.0948C1003.28 86.2042 1004.5 87.6977 1005.86 89.5813L1107.03 235.008C1106.54 230.354 1106.2 225.812 1106 221.435C1105.81 217.058 1105.71 212.959 1105.71 209.079V80.9404H1149.22H1149.22ZM1383.38 201.935C1383.38 219.442 1380.75 235.563 1375.45 250.354C1370.14 265.146 1362.65 277.944 1353.01 288.746C1343.38 299.548 1331.8 307.969 1318.22 314.01C1304.65 320.048 1289.56 323.096 1273.01 323.096H1190.39V80.9434H1273.01C1289.56 80.9434 1304.65 83.9914 1318.22 90.0843C1331.8 96.1801 1343.38 104.599 1353.01 115.349C1362.65 126.096 1370.14 138.839 1375.45 153.631C1380.75 168.422 1383.38 184.543 1383.38 201.941V201.935ZM1462.21 124.154V180.66H1529.07V222.21H1462.21V279.88H1549.51V323.093H1412.58V80.9404H1549.51V124.154H1462.21ZM1629.51 124.154V180.66H1696.37V222.21H1629.51V279.88H1716.81V323.093H1579.88V80.9404H1716.81V124.154H1629.51ZM1822.21 199.774C1835.06 199.774 1844.3 196.284 1849.95 189.304C1855.59 182.324 1858.42 172.574 1858.42 160.053C1858.42 154.512 1857.69 149.47 1856.23 144.929C1854.77 140.387 1852.58 136.453 1849.61 133.185C1846.64 129.918 1842.89 127.422 1838.37 125.651C1833.84 123.88 1828.44 122.993 1822.21 122.993H1796.52V199.777H1822.21V199.774ZM1822.21 80.9404C1837.2 80.9404 1850.09 82.9338 1860.85 86.9784C1871.6 91.023 1880.46 96.619 1887.42 103.709C1894.37 110.798 1899.48 119.165 1902.79 128.805C1906.1 138.446 1907.76 148.861 1907.76 160.05C1907.76 172.129 1906.05 183.208 1902.65 193.291C1899.24 203.373 1894.03 212.014 1887.02 219.216C1880.02 226.419 1871.16 232.015 1860.41 236.059C1849.65 240.104 1836.9 242.152 1822.21 242.152H1796.51V323.093H1747.17V80.9404H1822.21H1822.21Z" fill="#5E72E4"/>
</svg>
